<svg width="1502" height="865" viewBox="0 0 1502 865" fill="none" xmlns="http://www.w3.org/2000/svg">
<g filter="url(#filter0_d_1_59)">
<rect x="50" y="50" width="1402" height="764.205" fill="#D9D9D9"/>
<path d="M77.0878 72.1628H1419.99V790.401H77.0878V72.1628Z" fill="#F1F1F1"/>
<rect x="50" y="246.182" width="89.4719" height="372.663" rx="34" fill="#D9D9D9"/>
<rect x="59.8501" y="257.673" width="68.9508" height="348.858" rx="21" fill="#EAEAEA"/>
<rect x="1362.53" y="246.182" width="89.4719" height="372.663" rx="34" fill="#D9D9D9"/>
<rect x="1373.2" y="257.673" width="68.9508" height="348.858" rx="21" fill="#EAEAEA"/>
<path d="M59.0293 333.191H127.98V338.937H59.0293V333.191Z" fill="#C4C4C4"/>
<path d="M59.0293 407.477H127.98V413.223H59.0293V407.477Z" fill="#C4C4C4"/>
<path d="M59.0293 478.891H127.98V484.636H59.0293V478.891Z" fill="#C4C4C4"/>
<path d="M59.0293 542.506H127.98V548.252H59.0293V542.506Z" fill="#C4C4C4"/>
<path d="M59.0293 333.191H127.98V338.937H59.0293V333.191Z" fill="#C4C4C4"/>
<path d="M59.0293 407.477H127.98V413.223H59.0293V407.477Z" fill="#C4C4C4"/>
<path d="M59.0293 478.891H127.98V484.636H59.0293V478.891Z" fill="#C4C4C4"/>
<path d="M59.0293 542.506H127.98V548.252H59.0293V542.506Z" fill="#C4C4C4"/>
<path d="M1373.2 333.191H1442.15V338.937H1373.2V333.191Z" fill="#C4C4C4"/>
<path d="M1373.2 407.477H1442.15V413.223H1373.2V407.477Z" fill="#C4C4C4"/>
<path d="M1373.2 478.891H1442.15V484.636H1373.2V478.891Z" fill="#C4C4C4"/>
<path d="M1373.2 542.506H1442.15V548.252H1373.2V542.506Z" fill="#C4C4C4"/>
<path d="M82.4 306.701C81.9587 306.7 81.538 306.522 81.2405 306.21C80.9376 305.901 80.7871 305.482 80.8268 305.06L81.2122 301.006L99.0186 283.98L104.583 289.301L86.7816 306.326L82.5432 306.695C82.4944 306.699 82.4457 306.701 82.4 306.701ZM105.694 288.237L100.131 282.916L103.468 279.724C103.763 279.442 104.163 279.283 104.581 279.283C104.999 279.283 105.399 279.442 105.694 279.724L109.031 282.916C109.326 283.198 109.492 283.581 109.492 283.981C109.492 284.38 109.326 284.763 109.031 285.045L105.696 288.236L105.694 288.237Z" fill="#2E3A59"/>
<path d="M1398.65 567.952H1401.66V570.962H1398.65V567.952Z" fill="#2E3A59"/>
<path d="M1394.13 575.476V563.437H1406.17V575.476H1394.13ZM1397.14 566.447V572.467H1403.16V566.447H1397.14Z" fill="#2E3A59"/>
<path d="M1409.18 578.486H1413.69V581.496H1409.18V578.486Z" fill="#2E3A59"/>
<path d="M1413.69 581.496H1416.7V578.486H1421.22V583.001H1416.7V584.506H1418.21V586.011H1421.22V590.525H1418.21V587.515H1415.2V590.525H1409.18V584.506H1412.19V587.515H1413.69V581.496Z" fill="#2E3A59"/>
<path d="M1416.7 567.952H1413.69V570.962H1416.7V567.952Z" fill="#2E3A59"/>
<path d="M1409.18 563.437V575.476H1421.22V563.437H1409.18ZM1418.21 566.447V572.467H1412.19V566.447H1418.21Z" fill="#2E3A59"/>
<path d="M1398.65 583.001H1401.66V586.011H1398.65V583.001Z" fill="#2E3A59"/>
<path d="M1394.13 590.525V578.486H1406.17V590.525H1394.13ZM1397.14 581.496V587.515H1403.16V581.496H1397.14Z" fill="#2E3A59"/>
<path d="M96.5144 385.178H81.4657C80.6591 385.206 79.8772 384.898 79.3066 384.327C78.736 383.756 78.4279 382.974 78.4559 382.168V367.119C78.4279 366.313 78.736 365.531 79.3066 364.96C79.8772 364.389 80.6591 364.081 81.4657 364.109H87.4852V358.09C87.4571 357.283 87.7652 356.501 88.3359 355.931C88.9065 355.36 89.6884 355.052 90.4949 355.08H105.544C106.35 355.052 107.132 355.36 107.703 355.931C108.273 356.501 108.581 357.283 108.553 358.09V373.139C108.581 373.945 108.273 374.727 107.702 375.297C107.132 375.868 106.35 376.176 105.544 376.148H99.5242V382.168C99.5518 382.974 99.2435 383.756 98.673 384.327C98.1025 384.897 97.3208 385.205 96.5144 385.178ZM81.4657 367.119V382.168H96.5144V376.148H90.4949C89.6886 376.176 88.9069 375.868 88.3364 375.297C87.7658 374.727 87.4576 373.945 87.4852 373.139V367.119H81.4657ZM90.4949 358.09V373.139H105.544V358.09H90.4949Z" fill="#2E3A59"/>
<path d="M93.5047 463.158C91.8434 463.15 90.4963 461.809 90.4799 460.148H96.4994C96.5026 460.55 96.4258 460.949 96.2737 461.322C95.8789 462.228 95.0725 462.889 94.1066 463.098H94.0991H94.0765H94.0495H94.0359C93.8611 463.134 93.6832 463.154 93.5047 463.158ZM105.544 458.643H81.4657V455.633L84.4754 454.128V445.852C84.3961 443.728 84.8756 441.622 85.8659 439.742C86.8517 437.998 88.5366 436.76 90.4949 436.341V433.06H96.5144V436.341C100.396 437.265 102.534 440.642 102.534 445.852V454.128L105.544 455.633V458.643Z" fill="#2E3A59"/>
<path d="M98.0193 527.184H88.99V524.174H98.0193V527.184ZM98.0193 522.669H88.99L88.6545 519.659C88.4739 518.664 88.1754 517.693 87.7651 516.768C87.2323 516.016 86.677 515.373 86.1398 514.746C84.1656 512.895 83.0227 510.326 82.9705 507.62C82.9705 501.802 87.6868 497.086 93.5047 497.086C99.3225 497.086 104.039 501.802 104.039 507.62C103.978 510.309 102.843 512.862 100.889 514.71L100.864 514.74C100.328 515.367 99.774 516.017 99.2518 516.762C98.8419 517.69 98.5424 518.662 98.3594 519.659L98.0193 522.669ZM93.5047 500.096C89.3511 500.101 85.9853 503.467 85.9803 507.62C85.9803 509.944 86.9494 511.071 88.4152 512.779C88.972 513.429 89.604 514.163 90.221 515.023C90.9698 516.478 91.4814 518.043 91.7365 519.659H95.2744C95.5361 518.047 96.0468 516.486 96.7883 515.032C97.3903 514.172 98.0208 513.433 98.5761 512.783L98.5987 512.756C100.061 511.041 101.029 509.908 101.029 507.62C101.024 503.467 97.6582 500.101 93.5047 500.096Z" fill="#2E3A59"/>
<path d="M105.544 590.525H81.4657C79.8034 590.525 78.4559 589.178 78.4559 587.515V566.447C78.4559 564.785 79.8034 563.437 81.4657 563.437H105.544C107.206 563.437 108.553 564.785 108.553 566.447V587.515C108.553 589.178 107.206 590.525 105.544 590.525ZM81.4657 569.457V587.515H105.544V569.457H81.4657ZM97.5784 584.065L95.452 581.938L98.9012 578.486L95.4505 575.035L97.5784 572.908L103.157 578.486L97.5799 584.063L97.5784 584.065ZM89.431 584.065L83.8524 578.486L89.431 572.908L91.5589 575.035L88.1082 578.486L91.5574 581.937L89.431 584.063V584.065Z" fill="#2E3A59"/>
<path d="M1407.67 527.184C1399.36 527.184 1392.63 520.446 1392.63 512.135C1392.63 503.824 1399.36 497.086 1407.67 497.086C1415.99 497.086 1422.72 503.824 1422.72 512.135C1422.71 520.442 1415.98 527.174 1407.67 527.184ZM1404.65 510.615V513.64H1406.15V519.659H1410.7V516.649H1409.18L1409.19 510.616L1404.65 510.615ZM1406.15 504.61V507.649H1409.19V504.61H1406.15Z" fill="#2E3A59"/>
<path d="M1392.63 442.226L1406.61 428.241C1407.2 427.654 1408.15 427.654 1408.74 428.241L1422.72 442.226H1419.71V454.265C1419.71 455.096 1419.04 455.77 1418.21 455.77H1410.68V445.236H1404.66V455.77H1397.14C1396.31 455.77 1395.64 455.096 1395.64 454.265V442.226H1392.63Z" fill="#2E3A59"/>
<path d="M1418.21 389.419H1397.14C1395.48 389.419 1394.13 388.071 1394.13 386.409V365.341C1394.13 363.678 1395.48 362.331 1397.14 362.331H1418.21C1419.87 362.331 1421.22 363.678 1421.22 365.341V386.409C1421.22 388.071 1419.87 389.419 1418.21 389.419ZM1397.14 365.341V386.409H1418.21V365.341H1397.14ZM1416.7 383.399H1398.65L1403.16 377.38L1404.66 378.884L1409.18 372.865L1416.7 383.399ZM1402.41 374.37C1401.16 374.37 1400.15 373.359 1400.15 372.113C1400.15 370.866 1401.16 369.855 1402.41 369.855C1403.65 369.855 1404.66 370.866 1404.66 372.113C1404.66 373.359 1403.65 374.37 1402.41 374.37Z" fill="#2E3A59"/>
<path d="M1407.67 307.334C1405.77 305.713 1404.01 303.936 1402.41 302.021C1400 299.145 1397.14 294.862 1397.14 290.781C1397.14 286.518 1399.71 282.674 1403.64 281.043C1407.58 279.412 1412.11 280.315 1415.13 283.33C1417.11 285.302 1418.22 287.985 1418.21 290.781C1418.21 294.862 1415.35 299.145 1412.94 302.021C1411.34 303.936 1409.58 305.713 1407.67 307.334ZM1407.67 286.266C1406.06 286.266 1404.57 287.126 1403.76 288.523C1402.96 289.92 1402.96 291.641 1403.76 293.038C1404.57 294.435 1406.06 295.295 1407.67 295.295C1410.17 295.295 1412.19 293.274 1412.19 290.781C1412.19 288.287 1410.17 286.266 1407.67 286.266Z" fill="#2E3A59"/>
</g>
<defs>
<filter id="filter0_d_1_59" x="0" y="0" width="1502" height="864.205" filterUnits="userSpaceOnUse" color-interpolation-filters="sRGB">
<feFlood flood-opacity="0" result="BackgroundImageFix"/>
<feColorMatrix in="SourceAlpha" type="matrix" values="0 0 0 0 0 0 0 0 0 0 0 0 0 0 0 0 0 0 127 0" result="hardAlpha"/>
<feOffset/>
<feGaussianBlur stdDeviation="25"/>
<feComposite in2="hardAlpha" operator="out"/>
<feColorMatrix type="matrix" values="0 0 0 0 0 0 0 0 0 0 0 0 0 0 0 0 0 0 0.25 0"/>
<feBlend mode="normal" in2="BackgroundImageFix" result="effect1_dropShadow_1_59"/>
<feBlend mode="normal" in="SourceGraphic" in2="effect1_dropShadow_1_59" result="shape"/>
</filter>
</defs>
</svg>
